<?xml version="1.0" encoding="UTF-8" standalone="no"?>
<svg
   viewBox="0 0 1600.0022 2550.0977"
   version="1.1"
   id="svg1"
   width="1600.0022"
   height="2550.0977"
   xmlns="http://www.w3.org/2000/svg">
  <defs
     id="defs1" />
  <path
     id="path2"
     d="M 0.13603947,0.11551206 V 15.123322 195.12333 v 180 180 180 179.99999 179.99998 150 30 H 128.13602 v -30 c 0,-30 -7.8e-4,-90 10.69922,-150 10.3,-60 32.3,-119.99998 16,-179.99998 -15.7,-60 -69.699199,-119.99999 -90.699201,-179.99999 -21,-60 -11.000781,-120 10.699219,-180 21.299998,-60 53.300762,-120 85.300762,-180 32,-60 63.99922,-120 42.69922,-180 -21.7,-60 -95.69921,-120.000009 -106.699204,-180.000008 -0.91858,-5.01046 -1.23672,-10.0148099 -1.30273,-15.00780994 z"
     style="fill:#70798c;fill-opacity:1" />
  <path
     id="path6"
     d="m 1600.0022,1275.0079 v -15.0078 -180 -180.00013 -180 -180 V 359.99998 179.99999 29.999999 0 h -128 v 29.999999 c 0,29.999993 8e-4,89.999991 -10.6992,149.999991 -10.3,60 -32.3,120 -16,179.99999 15.7,60 69.6992,119.99999 90.6992,179.99999 21,60 11.0008,120 -10.6992,180 -21.3,60 -53.3008,120 -85.3008,180 -32,60.00007 -63.9992,120.00013 -42.6992,180.00013 21.7,60 95.6992,120 106.6992,180 0.9186,5.0105 1.2367,10.0148 1.3027,15.0078 z"
     style="fill:#70798c;fill-opacity:1" />
  <path
     id="path7"
     d="m 0,2550.0976 v -15.0078 -180 -180 -180 -180 -180 -180.0001 -150 -30 h 127.99998 v 30 c 0,30 -7.8e-4,90 10.69922,150 10.3,60.0001 32.3,120.0001 16,180.0001 -15.7,60 -69.699194,120 -90.6992,180 -21,60 -11.000781,120 10.699219,180 21.299997,60 53.300761,120 85.300761,180 32,60 63.99922,120 42.69922,180 -21.7,60 -95.69921,120 -106.699204,180 -0.91858,5.0105 -1.23672,10.0148 -1.30273,15.0078 z"
     style="fill:#70798c;fill-opacity:1" />
  <path
     id="path8"
     d="m 1600.0022,1275.002 v 15.0078 180 180.0001 180 180 180 180 150 29.9999 h -128 v -29.9999 c 0,-30 8e-4,-90 -10.6992,-150 -10.3,-60 -32.3,-120 -16,-180 15.7,-60 69.6992,-120 90.6992,-180 21,-60 11.0008,-120 -10.6992,-180 -21.3,-60 -53.3008,-120 -85.3008,-180 -32,-60.0001 -63.9992,-120.0001 -42.6992,-180.0001 21.7,-60 95.6992,-120 106.6992,-180 0.9186,-5.0105 1.2367,-10.0148 1.3027,-15.0078 z"
     style="fill:#70798c;fill-opacity:1" />
</svg>