<?xml version="1.0" encoding="UTF-8" standalone="no"?>
<svg
   viewBox="0 0 1600 1440"
   version="1.1"
   id="svg1"
   width="1600"
   height="1440"
   xmlns="http://www.w3.org/2000/svg">
  <defs
     id="defs1" />
  <path
     fill="#70798c"
     fill-opacity="1"
     d="M 1472.0187,0.02173896 V 30.021739 c 0,30.000001 0,90.000011 -10.7,150.000011 -10.3,60 -32.3,120 -16,180 15.7,60 69.7,120 90.7,180 21,60 11,120 -10.7,180 -21.3,60 -53.3,120.00001 -85.3,180.00001 -32,60 -64,119.99994 -42.7,179.99994 21.7,60 95.7,120 106.7,180 11,60 -43,120 -69.3,150 l -26.7,30 h 192 v -30 c 0,-30 0,-90 0,-150 0,-60 0,-120 0,-180 0,-60 0,-119.99994 0,-179.99994 0,-60 0,-120.00001 0,-180.00001 0,-60 0,-120 0,-180 0,-60 0,-120 0,-180 0,-60 0,-120 0,-180 0,-60 0,-120.000013 0,-150.000013 V 0.02173896 Z"
     id="path1" />
  <path
     fill="#70798c"
     fill-opacity="1"
     d="m 128.00117,1440.0071 v -30 c 0,-30 0,-90 10.7,-150 10.3,-60 32.3,-120 16,-180 -15.7,-60 -69.700004,-120.00009 -90.700006,-180.00009 -21,-60 -11,-120 10.7,-180 21.300002,-60 53.300006,-120.00001 85.300006,-180.00001 32,-60 64,-119.99996 42.7,-179.99996 -21.7,-60 -95.7,-120 -106.700004,-180 -11,-60 43.000004,-120.000003 69.300004,-150.000003 l 26.7,-30 H 0.00116407 v 30 c 0,30 0,90.000003 0,150.000003 0,60 0,120 0,180 0,60 0,119.99996 0,179.99996 0,60 0,120.00001 0,180.00001 0,60 0,120 0,180 0,60 0,119.99999 0,179.99999 0,60 0,120 0,180 0,60 0,120 0,150 v 30 z"
     id="path2" />
</svg>